<?xml version="1.0" encoding="utf-8"?>
<!-- Generator: Adobe Illustrator 27.7.0, SVG Export Plug-In . SVG Version: 6.00 Build 0)  -->
<svg version="1.1" id="Layer_1" xmlns="http://www.w3.org/2000/svg" xmlns:xlink="http://www.w3.org/1999/xlink" x="0px" y="0px"
	 viewBox="0 0 145 66" style="enable-background:new 0 0 145 66;" xml:space="preserve">
<style type="text/css">
	.st0{fill:#231F20;}
	.st1{fill:#006272;}
</style>
<g>
	<path class="st0" d="M9.2,62.2c-0.2,0.1-0.5,0.2-0.8,0.2c-0.2,0-0.5-0.1-0.7-0.2c-0.2-0.2-0.3-0.5-0.3-0.8
		c-0.3,0.3-0.6,0.6-1.1,0.8c-0.7,0.3-1.4,0.3-2.2,0.1C4,62.2,3.8,62.1,3.6,62c-0.2-0.2-0.4-0.4-0.5-0.6c-0.1-0.3-0.2-0.6-0.2-0.9
		c0-0.3,0.1-0.6,0.2-0.9c0.1-0.2,0.3-0.4,0.5-0.6c0.2-0.2,0.5-0.3,0.8-0.3c0.3-0.1,0.6-0.1,0.8-0.2c0.3-0.1,0.6-0.1,0.9-0.1
		c0.3,0,0.5-0.1,0.8-0.1c0.2,0,0.3-0.1,0.5-0.2c0.1-0.1,0.2-0.3,0.2-0.5c0-0.2,0-0.4-0.1-0.6c-0.1-0.1-0.2-0.3-0.3-0.3
		c-0.2-0.1-0.3-0.1-0.5-0.2c-0.2,0-0.4,0-0.5,0c-0.4,0-0.9,0.1-1.3,0.2c-0.3,0.2-0.5,0.6-0.5,1H3.1c0-0.4,0.1-0.7,0.3-1.1
		c0.2-0.3,0.4-0.5,0.6-0.7c0.3-0.2,0.6-0.3,0.9-0.4c0.4-0.1,0.7-0.1,1.1-0.1c0.3,0,0.6,0,0.9,0.1c0.3,0,0.6,0.1,0.8,0.3
		c0.2,0.1,0.4,0.3,0.6,0.6c0.2,0.3,0.2,0.6,0.2,0.9v3.4c0,0.2,0,0.4,0,0.6c0,0.1,0.1,0.2,0.3,0.2c0.1,0,0.2,0,0.3,0L9.2,62.2z
		 M7.4,58.8C7.2,58.9,7.1,59,6.9,59c-0.2,0.1-0.5,0.1-0.7,0.1l-0.8,0.1c-0.2,0-0.5,0.1-0.7,0.2c-0.2,0.1-0.4,0.2-0.5,0.4
		C4.1,60,4,60.2,4,60.4c0,0.2,0,0.3,0.1,0.5c0.1,0.1,0.2,0.2,0.3,0.3c0.1,0.1,0.3,0.1,0.4,0.2c0.5,0.1,1,0,1.4-0.1
		c0.2-0.1,0.4-0.2,0.6-0.4c0.2-0.1,0.3-0.3,0.4-0.5c0.1-0.2,0.1-0.3,0.1-0.5L7.4,58.8z"/>
	<path class="st0" d="M11.3,55.5v1.1l0,0c0.4-0.8,1.3-1.3,2.2-1.2c0.4,0,0.7,0,1.1,0.2c0.3,0.1,0.5,0.3,0.8,0.5
		c0.2,0.2,0.3,0.5,0.4,0.8c0.1,0.3,0.1,0.7,0.1,1v4.4h-1.1v-4.5c0.1-0.7-0.4-1.3-1.1-1.4c-0.1,0-0.2,0-0.3,0c-0.3,0-0.6,0-0.9,0.2
		c-0.2,0.1-0.5,0.2-0.6,0.4c-0.2,0.2-0.3,0.4-0.4,0.7c-0.1,0.3-0.1,0.6-0.1,0.8v3.8h-1.1v-6.7L11.3,55.5z"/>
	<path class="st0" d="M24.9,53l3.6,9.3h-1.4l-1-2.8h-3.9l-1,2.8h-1.3l3.6-9.3H24.9z M25.8,58.4l-1.5-4.3l0,0l-1.6,4.3H25.8z"/>
	<path class="st0" d="M29.3,54.3V53h1.1v1.3H29.3z M30.4,55.5v6.7h-1.1v-6.7H30.4z"/>
	<path class="st0" d="M33.2,55.5v1.4l0,0c0.2-0.5,0.6-0.9,1-1.2c0.5-0.3,1-0.4,1.5-0.4v1.2c-0.4,0-0.8,0.1-1.1,0.2
		c-0.3,0.1-0.6,0.3-0.8,0.5c-0.2,0.3-0.4,0.6-0.4,0.9c-0.1,0.4-0.1,0.8-0.1,1.2v3h-1.1v-6.7L33.2,55.5z"/>
	<path class="st0" d="M40.9,53v8.2h4.9v1h-6.1V53H40.9z"/>
	<path class="st0" d="M46.8,54.3V53h1.1v1.3H46.8z M47.9,55.5v6.7h-1.1v-6.7H47.9z"/>
	<path class="st0" d="M54.5,64.8v-3.5l0,0c-0.2,0.4-0.5,0.7-0.9,0.8c-0.4,0.2-0.8,0.3-1.3,0.2c-0.5,0-0.9-0.1-1.4-0.3
		c-0.4-0.2-0.7-0.4-1-0.8c-0.3-0.3-0.5-0.7-0.6-1.1c-0.3-0.9-0.3-1.8,0-2.7c0.1-0.4,0.3-0.8,0.6-1.1c0.3-0.3,0.6-0.6,1-0.8
		c0.4-0.2,0.9-0.3,1.3-0.3c0.2,0,0.4,0,0.6,0.1c0.2,0,0.4,0.1,0.6,0.2c0.2,0.1,0.4,0.2,0.6,0.3c0.2,0.1,0.3,0.3,0.5,0.5l0,0v-0.9
		h1.1v9.3H54.5z M50.5,59.9c0.1,0.3,0.2,0.6,0.4,0.8c0.2,0.2,0.4,0.4,0.6,0.6c0.3,0.1,0.6,0.2,0.9,0.2c0.3,0,0.7-0.1,1-0.2
		c0.3-0.1,0.5-0.3,0.6-0.6c0.2-0.2,0.3-0.5,0.4-0.8c0.1-0.3,0.1-0.6,0.1-0.9c0-0.3,0-0.6-0.1-1c-0.1-0.3-0.2-0.6-0.3-0.8
		c-0.2-0.2-0.4-0.4-0.7-0.6c-0.3-0.1-0.6-0.2-1-0.2c-0.3,0-0.7,0.1-1,0.2c-0.3,0.1-0.5,0.3-0.6,0.6c-0.2,0.3-0.3,0.5-0.3,0.8
		c-0.1,0.3-0.1,0.6-0.1,1C50.4,59.3,50.5,59.6,50.5,59.9z"/>
	<path class="st0" d="M61.8,62.3v-1.1l0,0c-0.2,0.4-0.5,0.7-0.9,0.9c-0.4,0.2-0.8,0.3-1.3,0.3c-0.4,0-0.7-0.1-1.1-0.2
		c-0.3-0.1-0.5-0.3-0.7-0.5c-0.2-0.2-0.3-0.5-0.4-0.8c-0.1-0.3-0.1-0.7-0.1-1v-4.4h1.1v4.5c0,0.4,0.1,0.7,0.4,1
		c0.3,0.3,0.6,0.4,1,0.4c0.3,0,0.6,0,0.9-0.2c0.2-0.1,0.4-0.3,0.6-0.4c0.2-0.2,0.3-0.4,0.4-0.7c0.1-0.3,0.1-0.6,0.1-0.8v-3.8h1.1
		v6.7L61.8,62.3z"/>
	<path class="st0" d="M64.6,54.3V53h1.1v1.3H64.6z M65.7,55.5v6.7h-1.1v-6.7H65.7z"/>
	<path class="st0" d="M72.3,62.3v-0.9l0,0c-0.2,0.4-0.5,0.7-0.9,0.8c-0.4,0.2-0.8,0.3-1.3,0.2c-0.5,0-0.9-0.1-1.4-0.3
		c-0.4-0.2-0.7-0.4-1-0.8c-0.3-0.3-0.5-0.7-0.6-1.1c-0.1-0.4-0.2-0.9-0.2-1.3c0-0.5,0.1-0.9,0.2-1.3c0.1-0.4,0.3-0.8,0.6-1.1
		c0.3-0.3,0.6-0.6,1-0.8c0.6-0.3,1.3-0.3,1.9-0.2c0.2,0,0.4,0.1,0.6,0.2c0.2,0.1,0.4,0.2,0.6,0.3c0.2,0.1,0.3,0.3,0.4,0.5l0,0V53
		h1.1v9.3H72.3z M68.3,59.9c0.1,0.3,0.2,0.6,0.4,0.8c0.2,0.2,0.4,0.4,0.6,0.6c0.3,0.1,0.6,0.2,0.9,0.2c0.3,0,0.7-0.1,0.9-0.2
		c0.3-0.1,0.5-0.3,0.6-0.6c0.2-0.2,0.3-0.5,0.4-0.8c0.1-0.3,0.1-0.6,0.1-0.9c0-0.3,0-0.6-0.1-1c-0.1-0.3-0.2-0.6-0.4-0.8
		c-0.2-0.2-0.4-0.4-0.7-0.6c-0.3-0.1-0.6-0.2-1-0.2c-0.3,0-0.7,0.1-1,0.2c-0.3,0.1-0.5,0.3-0.6,0.6c-0.2,0.3-0.3,0.5-0.3,0.8
		c-0.1,0.3-0.1,0.6-0.1,1C68.2,59.3,68.2,59.6,68.3,59.9z"/>
	<path class="st0" d="M79.9,61.8c-0.6,0.4-1.2,0.6-1.9,0.6c-0.5,0-1-0.1-1.4-0.3c-0.4-0.2-0.7-0.4-1-0.8c-0.3-0.3-0.5-0.7-0.6-1.1
		c-0.1-0.5-0.2-0.9-0.2-1.4c0-0.5,0.1-1,0.2-1.4c0.1-0.4,0.4-0.8,0.7-1.1c0.3-0.3,0.6-0.6,1-0.8c0.4-0.2,0.8-0.3,1.3-0.3
		c0.5,0,1.1,0.1,1.5,0.4c0.4,0.2,0.7,0.6,0.9,0.9c0.2,0.4,0.4,0.8,0.5,1.2c0.1,0.4,0.1,0.9,0.1,1.3h-5c0,0.3,0,0.6,0.1,0.8
		c0.2,0.5,0.5,1,1,1.2c0.3,0.1,0.6,0.2,0.9,0.2c0.4,0,0.8-0.1,1.2-0.3c0.3-0.2,0.5-0.6,0.6-1h1.1C80.8,60.8,80.4,61.4,79.9,61.8z
		 M79.6,57.5c-0.1-0.2-0.2-0.4-0.4-0.6c-0.6-0.5-1.4-0.7-2.1-0.4c-0.2,0.1-0.4,0.2-0.6,0.4c-0.2,0.2-0.3,0.4-0.4,0.6
		c-0.1,0.2-0.2,0.5-0.2,0.8h3.9C79.7,58,79.7,57.8,79.6,57.5z"/>
	<path class="st0" d="M89.7,56.7c-0.3-0.2-0.7-0.4-1.1-0.4c-0.3,0-0.7,0.1-1,0.2c-0.3,0.1-0.5,0.3-0.6,0.6c-0.2,0.3-0.3,0.5-0.3,0.8
		c-0.1,0.3-0.1,0.7-0.1,1c0,0.3,0,0.6,0.1,0.9c0.1,0.3,0.2,0.5,0.3,0.8c0.2,0.2,0.4,0.4,0.6,0.6c0.3,0.1,0.6,0.2,0.9,0.2
		c0.5,0,0.9-0.1,1.3-0.4c0.3-0.3,0.5-0.7,0.6-1.2h1.1c-0.1,0.7-0.4,1.4-0.9,1.9c-0.6,0.5-1.3,0.7-2,0.7c-0.5,0-0.9-0.1-1.4-0.2
		c-0.4-0.2-0.7-0.4-1-0.7c-0.3-0.3-0.5-0.7-0.6-1.1c-0.1-0.4-0.2-0.9-0.2-1.4c0-0.5,0.1-1,0.2-1.4c0.1-0.4,0.3-0.8,0.6-1.1
		c0.3-0.3,0.6-0.6,1-0.8c0.4-0.2,0.9-0.3,1.4-0.3c0.4,0,0.7,0,1.1,0.1c0.3,0.1,0.6,0.2,0.9,0.4c0.3,0.2,0.5,0.5,0.6,0.8
		c0.2,0.3,0.3,0.7,0.3,1h-1.1C90.2,57.3,90,57,89.7,56.7z"/>
	<path class="st0" d="M92.7,57.5c0.1-0.4,0.3-0.8,0.6-1.1c0.3-0.3,0.6-0.6,1-0.8c0.9-0.4,1.9-0.4,2.8,0c0.4,0.2,0.7,0.4,1,0.8
		c0.3,0.3,0.5,0.7,0.6,1.1c0.1,0.4,0.2,0.9,0.2,1.4c0,0.5-0.1,0.9-0.2,1.4c-0.1,0.4-0.3,0.8-0.6,1.1c-0.3,0.3-0.6,0.6-1,0.8
		c-0.9,0.4-1.9,0.4-2.8,0c-0.4-0.2-0.7-0.4-1-0.8c-0.3-0.3-0.5-0.7-0.6-1.1c-0.1-0.4-0.2-0.9-0.2-1.4C92.4,58.4,92.5,58,92.7,57.5z
		 M93.8,60c0.1,0.3,0.2,0.5,0.4,0.8c0.2,0.2,0.4,0.4,0.7,0.5c0.5,0.2,1.1,0.2,1.6,0c0.3-0.1,0.5-0.3,0.7-0.5
		c0.2-0.2,0.3-0.5,0.4-0.8c0.2-0.7,0.2-1.5,0-2.2c-0.1-0.3-0.2-0.6-0.4-0.8c-0.2-0.2-0.4-0.4-0.7-0.5c-0.5-0.2-1.1-0.2-1.6,0
		c-0.3,0.1-0.5,0.3-0.7,0.5c-0.2,0.2-0.4,0.5-0.4,0.8C93.6,58.5,93.6,59.3,93.8,60z"/>
	<path class="st0" d="M101.3,55.5v1l0,0c0.5-0.7,1.3-1.2,2.2-1.1c0.4,0,0.8,0.1,1.1,0.3c0.4,0.2,0.6,0.5,0.8,0.9
		c0.2-0.4,0.5-0.6,0.9-0.8c0.4-0.2,0.8-0.3,1.2-0.3c0.3,0,0.6,0,0.9,0.1c0.3,0.1,0.5,0.2,0.7,0.3c0.2,0.2,0.4,0.4,0.5,0.6
		c0.1,0.3,0.2,0.6,0.2,0.9v4.9h-1.1v-4.4c0-0.2,0-0.4-0.1-0.6c0-0.2-0.1-0.3-0.2-0.5c-0.1-0.1-0.2-0.3-0.4-0.3
		c-0.2-0.1-0.4-0.1-0.7-0.1c-0.5,0-0.9,0.1-1.3,0.5c-0.3,0.3-0.5,0.8-0.5,1.2v4.2h-1.1v-4.4c0-0.2,0-0.4-0.1-0.6
		c0-0.2-0.1-0.3-0.2-0.5c-0.1-0.1-0.2-0.2-0.4-0.3c-0.2-0.1-0.4-0.1-0.6-0.1c-0.3,0-0.6,0.1-0.8,0.2c-0.2,0.1-0.4,0.3-0.6,0.5
		c-0.1,0.2-0.2,0.4-0.3,0.6c-0.1,0.2-0.1,0.3-0.1,0.5v4.2h-1.1v-6.7H101.3z"/>
	<path class="st0" d="M112.5,55.5v0.9l0,0c0.2-0.4,0.5-0.7,0.9-0.8c0.4-0.2,0.8-0.3,1.3-0.2c0.5,0,0.9,0.1,1.3,0.3
		c0.4,0.2,0.7,0.4,1,0.8c0.3,0.3,0.5,0.7,0.6,1.1c0.1,0.4,0.2,0.9,0.2,1.3c0,0.5-0.1,0.9-0.2,1.3c-0.1,0.4-0.3,0.8-0.6,1.1
		c-0.3,0.3-0.6,0.6-1,0.8c-0.4,0.2-0.9,0.3-1.3,0.3c-0.2,0-0.4,0-0.6-0.1c-0.2,0-0.4-0.1-0.6-0.2c-0.2-0.1-0.4-0.2-0.6-0.3
		c-0.2-0.1-0.3-0.3-0.5-0.5l0,0v3.5h-1.1v-9.3H112.5z M116.5,57.9c-0.1-0.3-0.2-0.6-0.4-0.8c-0.2-0.2-0.4-0.4-0.6-0.6
		c-0.3-0.1-0.6-0.2-0.9-0.2c-0.3,0-0.7,0.1-1,0.2c-0.3,0.1-0.5,0.3-0.6,0.6c-0.2,0.2-0.3,0.5-0.4,0.8c-0.1,0.3-0.1,0.6-0.1,0.9
		c0,0.3,0,0.6,0.1,1c0.1,0.3,0.2,0.6,0.4,0.8c0.2,0.2,0.4,0.4,0.7,0.6c0.3,0.1,0.6,0.2,1,0.2c0.3,0,0.7-0.1,1-0.2
		c0.3-0.1,0.5-0.3,0.6-0.6c0.2-0.3,0.3-0.5,0.3-0.8c0.1-0.3,0.1-0.6,0.1-1C116.6,58.5,116.5,58.2,116.5,57.9z"/>
	<path class="st0" d="M125,62.2c-0.2,0.1-0.5,0.2-0.8,0.2c-0.2,0-0.5-0.1-0.7-0.2c-0.2-0.2-0.3-0.5-0.3-0.8
		c-0.3,0.3-0.6,0.6-1.1,0.8c-0.7,0.3-1.5,0.3-2.2,0.1c-0.3-0.1-0.5-0.2-0.7-0.3c-0.2-0.2-0.4-0.4-0.5-0.6c-0.2-0.6-0.2-1.2,0-1.8
		c0.1-0.2,0.3-0.4,0.5-0.6c0.2-0.2,0.5-0.3,0.8-0.3c0.3-0.1,0.6-0.1,0.8-0.2c0.3-0.1,0.6-0.1,0.9-0.1c0.3,0,0.5-0.1,0.8-0.1
		c0.2,0,0.3-0.1,0.5-0.2c0.1-0.1,0.2-0.3,0.2-0.5c0-0.2,0-0.4-0.1-0.6c-0.1-0.1-0.2-0.3-0.3-0.3c-0.2-0.1-0.3-0.1-0.5-0.2
		c-0.2,0-0.4,0-0.5,0c-0.4,0-0.8,0.1-1.2,0.3c-0.3,0.2-0.5,0.6-0.5,1h-1.2c0-0.4,0.1-0.7,0.3-1.1c0.2-0.3,0.4-0.5,0.6-0.7
		c0.3-0.2,0.6-0.3,0.9-0.4c0.4-0.1,0.7-0.1,1.1-0.1c0.3,0,0.6,0,0.9,0.1c0.3,0,0.6,0.1,0.8,0.3c0.2,0.1,0.4,0.3,0.6,0.6
		c0.2,0.3,0.2,0.6,0.2,0.9v3.4c0,0.2,0,0.4,0,0.6c0,0.1,0.1,0.2,0.3,0.2c0.1,0,0.2,0,0.3,0L125,62.2z M123.2,58.8
		c-0.2,0.1-0.3,0.2-0.5,0.2c-0.2,0.1-0.5,0.1-0.7,0.1l-0.8,0.1c-0.2,0-0.5,0.1-0.7,0.2c-0.2,0.1-0.4,0.2-0.5,0.4
		c-0.1,0.2-0.2,0.4-0.2,0.6c0,0.2,0,0.3,0.1,0.5c0.1,0.1,0.2,0.2,0.3,0.3c0.1,0.1,0.3,0.1,0.4,0.2c0.2,0,0.3,0,0.5,0
		c0.3,0,0.6,0,0.9-0.1c0.2-0.1,0.5-0.2,0.6-0.4c0.1-0.1,0.3-0.3,0.4-0.5c0.1-0.2,0.1-0.3,0.1-0.5L123.2,58.8z"/>
	<path class="st0" d="M127.1,55.5v1.1l0,0c0.4-0.8,1.3-1.3,2.2-1.2c0.4,0,0.8,0.1,1.1,0.2c0.6,0.2,1,0.7,1.1,1.3
		c0.1,0.3,0.1,0.7,0.1,1v4.4h-1.1v-4.5c0.1-0.7-0.5-1.3-1.1-1.4c-0.1,0-0.1,0-0.2,0c-0.3,0-0.6,0-0.9,0.2c-0.2,0.1-0.5,0.2-0.6,0.4
		c-0.2,0.2-0.3,0.4-0.4,0.7c-0.1,0.3-0.1,0.6-0.1,0.8v3.8H126v-6.7L127.1,55.5z"/>
	<path class="st0" d="M135.7,63.1c-0.1,0.3-0.2,0.6-0.4,0.8c-0.1,0.2-0.2,0.4-0.4,0.6c-0.1,0.1-0.3,0.2-0.5,0.3
		c-0.2,0.1-0.4,0.1-0.6,0.1c-0.1,0-0.3,0-0.4,0c-0.1,0-0.3-0.1-0.4-0.1v-1c0.1,0,0.2,0.1,0.3,0.1c0.1,0,0.2,0,0.3,0
		c0.2,0,0.4-0.1,0.6-0.2c0.2-0.1,0.3-0.3,0.3-0.5l0.5-1.1l-2.7-6.7h1.3l2,5.5l0,0l1.9-5.5h1.2L135.7,63.1z"/>
	<path class="st1" d="M129.2,18.8v-2c0-1.5-0.6-3.4-2.9-3.4c-1.5,0-2.3,0.9-2.3,2.7c0,2.2,2.7,3.8,6.7,6.4c4.2,2.8,8,4.8,8,10.7
		c0,7.8-5.3,11-12.2,11c-9.4,0-12.7-5.9-11.8-14.3h8.5v1.5c0,2.9-0.1,6.2,3.3,6.2c1.8,0,2.8-1.1,2.8-3.2c0-2.1-1.7-3.8-7.4-7.5
		s-7.1-6.4-7.1-10.2c0-7.4,4.9-9.8,11.3-9.8c6.5,0,11.7,2.8,11.7,9.8c0,0.7-0.1,1.4-0.2,2.1L129.2,18.8"/>
	<path class="st1" d="M46.7,43.7V7.4h8.6l0.3,2.2c2.1-3.1,6.6-2.6,6.6-2.6v7.7c0,0-6.1-1-6.1,3.6v25.3H46.7"/>
	<path class="st1" d="M87.1,7.4h-9.4l-0.2,3.8c-1.3-2.7-3.5-4.4-7.3-4.4c-5.7,0-7.5,3.9-7.5,17.1S65,39.4,70,39.4
		c2.7,0.1,5.2-1.1,6.9-3.1c0.5,0.5,0.7,1.1,0.8,1.7c0,1.6-2.2,4.4-6.5,4.4c-1.9,0-3.9-0.3-5.8-0.8l-1.8,4.8c3.2,0.9,6.5,1.5,9.8,1.5
		c6.4,0,13.6-2.1,13.6-11.4L87.1,7.4z M77.6,31c-0.8,1.2-1.8,1.8-2.5,1.8c-1.6,0-1.9-2.2-1.9-9.7s0.3-9.7,1.9-9.7
		c0.8,0,1.7,0.6,2.6,1.8V31z"/>
	<path class="st1" d="M98.3,33.5c0-4.3,0.7-5.9,5.6-8.9v10.3c0,1.5-1.3,2.6-2.7,2.6c0,0,0,0,0,0C99.4,37.5,98.3,36.1,98.3,33.5z
		 M112.3,14.8c0-5.1-4.7-7.9-11.3-7.9c-7.1,0-11.1,4.3-11.1,9.8c0,0.8,0.1,1.5,0.2,2.3h8.5v-3.7c0-3.2,4.9-2.9,4.9,0.1
		c0,1-0.1,1.9-0.2,2.9c-11,3.9-14,7.4-14,15.1c0,6.6,2.3,11,7.5,11c2.5,0,4.9-0.9,6.8-2.4l0.2,1.8h8.7L112.3,14.8z"/>
	<polygon class="st1" points="33.7,43.7 43.1,43.7 43.1,7.4 33.7,7.4 33.7,18.3 	"/>
	<polygon class="st1" points="33.7,5.4 43.1,5.4 43.1,1.1 33.7,1.1 33.7,3 	"/>
	<path class="st1" d="M15.6,28.4L15.6,28.4L15.6,28.4l2.4-16.5l2,16.5L15.6,28.4L15.6,28.4 M24.6,1.1h-13L2.9,43.7h10.6l1-6.4h6.3
		l0.6,6.4h11L24.6,1.1z"/>
	<path class="st1" d="M143.2,41.6c0,1-0.8,1.9-1.8,1.9c0,0-0.1,0-0.1,0l0,0c-1.1,0-1.9-0.8-2-1.9c0-1.1,0.8-1.9,1.9-2
		S143.2,40.5,143.2,41.6C143.2,41.6,143.2,41.6,143.2,41.6 M143.8,41.6c0-1.4-1.1-2.5-2.5-2.5s-2.5,1.1-2.5,2.5
		c0,1.4,1.1,2.5,2.5,2.5c0,0,0,0,0,0c1.3,0.1,2.4-1,2.5-2.3C143.8,41.7,143.8,41.7,143.8,41.6z M140.9,41.8h0.3l0.6,1.1h0.7
		l-0.7-1.2c0.3,0,0.6-0.3,0.7-0.6c0,0,0-0.1,0-0.1c0-0.6-0.4-0.8-1.1-0.8h-1V43h0.6V41.8z M140.9,41.4v-0.6h0.4c0.2,0,0.5,0,0.5,0.3
		s-0.2,0.3-0.4,0.3H140.9z"/>
</g>
</svg>
